# xmcd CD database file
#
# Track frame offsets:
#	150
#	21522
#	38145
#
# Disc length: 792 seconds
#
# Revision: 1
# Processed by: cddbd v1.5.2PL0 Copyright (c) Steve Scherf et al.
# Submitted via: CDex 1.70beta2
#
DISCID=1f031603
DTITLE=TUBE - 夏だね
DYEAR=1992
DGENRE=JPop
TTITLE0=夏だね
TTITLE1=夏に首ったけ
TTITLE2=夏だね (オリジナル・カラオケ)
EXTD=YEAR: 1992
EXTT0=
EXTT1=
EXTT2=
PLAYORDER=
